<!-- Cian Hughes -->
<!-- G00415413@atu.ie -->
<svg width="400" height="400" xmlns="http://www.w3.org/2000/svg" version="1.1">
 
 <g stroke="black" >

	<circle r="200" cx="150" cy="210" stroke="white" stroke-width="3" fill="white" />
 
	<line x1="25" y1="125" x2="150" y2="190" stroke-width="6" />
	<line x1="150" y1="190" x2="250" y2="125" stroke-width="6" />
	<line x1="140" y1="60" x2="250" y2="125" stroke-width="6" />
	<line x1="140" y1="60" x2="25" y2="125" stroke-width="6" />
  
	<line x1="25" y1="125" x2="25" y2="250" stroke-width="6" />
	<line x1="150" y1="190" x2="150" y2="300" stroke-width="6" />
	<line x1="250" y1="125" x2="250" y2="250" stroke-width="6" />
  
  
	<line x1="25" y1="250" x2="150" y2="300" stroke-width="6" />
	<line x1="150" y1="300" x2="250" y2="250" stroke-width="6" />
 
	<circle r="17" cx="140" cy="125" stroke="black" stroke-width="3" fill="black" />
	<circle r="17" cx="60" cy="180" stroke="black" stroke-width="3" fill="black" />
	<circle r="17" cx="110" cy="240" stroke="black" stroke-width="3" fill="black" />
	<circle r="17" cx="225" cy="170" stroke="black" stroke-width="3" fill="black" />
	<circle r="17" cx="205" cy="215" stroke="black" stroke-width="3" fill="black" />
	<circle r="17" cx="175" cy="250" stroke="black" stroke-width="3" fill="black" />
 
 
  
 </g>
 
 <text x="15" y="350" fill="red" font-size="40px">SpecialK Dice!!! </text>
 
</svg>